<svg width="430" height="118" viewBox="0 0 430 118" fill="none" xmlns="http://www.w3.org/2000/svg">
<path d="M55.2252 20.6971C54.3993 20.6971 53.5171 20.8285 52.5786 21.0913C51.6776 21.3541 50.7767 21.8609 49.8757 22.6117C48.9747 23.3625 48.0925 24.4136 47.2291 25.7651C46.4032 27.079 45.6712 28.8246 45.033 31.002C44.4323 33.1793 43.9443 35.8259 43.5689 38.9418C43.1935 42.0201 43.0058 45.6991 43.0058 49.9787C43.0058 54.2207 43.1935 57.9185 43.5689 61.0719C43.9443 64.2253 44.4323 66.9282 45.033 69.1806C45.6712 71.433 46.4032 73.2913 47.2291 74.7554C48.0925 76.1819 48.9747 77.3081 49.8757 78.134C50.7767 78.9599 51.6776 79.5418 52.5786 79.8796C53.5171 80.1799 54.3993 80.3301 55.2252 80.3301C56.3514 80.3301 57.4025 80.0861 58.3786 79.5981V58.0311C58.3786 57.4304 58.51 56.8486 58.7728 56.2855C59.0356 55.6848 59.655 55.3845 60.631 55.3845H66.5436C66.8815 55.3845 67.2194 55.4033 67.5572 55.4408C67.8951 55.4783 68.1954 55.591 68.4582 55.7787C68.721 55.9288 68.9275 56.1916 69.0776 56.567C69.2278 56.9049 69.3029 57.3929 69.3029 58.0311V90.3534C69.3029 90.9916 69.2278 91.4984 69.0776 91.8738C68.9275 92.2117 68.721 92.4744 68.4582 92.6621C68.1954 92.8123 67.8951 92.9061 67.5572 92.9437C67.2194 92.9812 66.8815 93 66.5436 93H60.631C60.143 93 59.7488 92.9249 59.4485 92.7748C59.1857 92.6246 58.9605 92.4181 58.7728 92.1553C58.6226 91.8926 58.51 91.611 58.4349 91.3107C58.3974 90.9728 58.3786 90.6537 58.3786 90.3534V88.7204C57.1773 89.5838 55.8446 90.4097 54.3805 91.1981C52.9165 91.9864 51.3022 92.6809 49.5378 93.2816C47.811 93.8822 45.9339 94.3515 43.9068 94.6893C41.8796 95.0272 39.7022 95.1961 37.3747 95.1961C34.6343 95.1961 31.8187 94.9521 28.9281 94.4641C26.0375 93.9761 23.222 93.1126 20.4815 91.8738C17.7786 90.5974 15.2071 88.8706 12.767 86.6932C10.3269 84.5159 8.18705 81.7566 6.34757 78.4155C4.54563 75.0744 3.10032 71.0764 2.01165 66.4214C0.960515 61.7288 0.434949 56.2479 0.434949 49.9787C0.434949 44.6479 0.960515 39.9554 2.01165 35.901C3.10032 31.8091 4.5644 28.2615 6.40388 25.2583C8.24336 22.2551 10.3832 19.7399 12.8233 17.7127C15.301 15.6855 17.9288 14.0712 20.7068 12.87C23.4848 11.6311 26.3378 10.7677 29.266 10.2797C32.2317 9.7541 35.1223 9.49132 37.9378 9.49132C41.0162 9.49132 43.9443 9.73533 46.7223 10.2234C49.5003 10.7114 52.0343 11.3308 54.3242 12.0816C56.6517 12.8324 58.7165 13.6771 60.5184 14.6156C62.3203 15.5541 63.8032 16.4738 64.9669 17.3748C65.0796 17.4874 65.211 17.6188 65.3611 17.769C65.5113 17.8816 65.5864 18.0318 65.5864 18.2195C65.5864 18.3696 65.5301 18.5573 65.4174 18.7826L62.9961 22.6117C62.7708 22.9496 62.508 23.1185 62.2077 23.1185C61.9825 23.1185 61.6634 23.0059 61.2504 22.7806C60.875 22.5178 60.387 22.2363 59.7864 21.936C59.1857 21.5981 58.51 21.3166 57.7592 21.0913C57.0084 20.8285 56.1637 20.6971 55.2252 20.6971ZM111.085 94.9709C108.27 94.9709 105.454 94.7456 102.639 94.2951C99.8232 93.8447 97.1203 93.1314 94.53 92.1553C91.9773 91.1793 89.5935 89.9029 87.3786 88.3262C85.1637 86.7495 83.2304 84.8162 81.5786 82.5262C79.9643 80.2363 78.688 77.5897 77.7495 74.5864C76.811 71.5456 76.3417 68.0732 76.3417 64.169C76.3417 60.3398 76.811 56.9236 77.7495 53.9204C78.688 50.8796 79.9643 48.2143 81.5786 45.9243C83.2304 43.6343 85.1637 41.701 87.3786 40.1243C89.5935 38.5101 91.9773 37.2149 94.53 36.2389C97.1203 35.2253 99.8232 34.4932 102.639 34.0428C105.454 33.5923 108.27 33.367 111.085 33.367C113.676 33.367 116.322 33.536 119.025 33.8738C121.766 34.1741 124.412 34.756 126.965 35.6195C129.555 36.4453 131.977 37.5903 134.229 39.0544C136.519 40.4809 138.509 42.3204 140.198 44.5728C141.925 46.8253 143.276 49.5282 144.252 52.6816C145.266 55.7974 145.773 59.4764 145.773 63.7185C145.773 68.0732 145.285 71.8835 144.309 75.1495C143.333 78.378 141.981 81.156 140.254 83.4835C138.565 85.7735 136.594 87.6693 134.342 89.1709C132.089 90.6725 129.668 91.855 127.078 92.7184C124.525 93.5443 121.878 94.1262 119.138 94.4641C116.397 94.8019 113.713 94.9709 111.085 94.9709ZM128.373 81.4563C129.536 81.4563 130.681 81.2123 131.808 80.7243C132.971 80.1987 133.985 79.279 134.848 77.9651C135.749 76.6511 136.463 74.8492 136.988 72.5592C137.551 70.2317 137.833 67.2848 137.833 63.7185C137.833 60.3398 137.551 57.5618 136.988 55.3845C136.463 53.2071 135.749 51.4991 134.848 50.2602C133.947 48.9838 132.934 48.1016 131.808 47.6136C130.681 47.1256 129.536 46.8816 128.373 46.8816C127.472 46.8816 126.458 47.0693 125.332 47.4447C124.243 47.8201 123.211 48.6272 122.235 49.866C121.296 51.0673 120.508 52.813 119.87 55.1029C119.232 57.3554 118.913 60.3774 118.913 64.169C118.913 67.9605 119.175 71.0013 119.701 73.2913C120.226 75.5812 120.921 77.3269 121.784 78.5282C122.648 79.7295 123.643 80.5178 124.769 80.8932C125.933 81.2686 127.134 81.4563 128.373 81.4563ZM153.994 20.0214C153.994 18.7075 154.107 17.5625 154.332 16.5865C154.557 15.6104 154.989 14.8033 155.627 14.1651C156.265 13.4894 157.147 12.9826 158.274 12.6447C159.4 12.3068 160.864 12.1379 162.666 12.1379H187.78C191.872 12.1379 195.814 12.6259 199.606 13.602C203.397 14.578 206.757 16.1547 209.685 18.3321C212.613 20.5094 214.96 23.3437 216.724 26.835C218.489 30.2887 219.371 34.512 219.371 39.5049C219.371 46.4874 218.245 52.156 215.992 56.5107C213.777 60.8654 210.68 63.9437 206.701 65.7456C209.479 66.6466 211.562 68.0732 212.951 70.0253C214.34 71.9398 215.035 74.2486 215.035 76.9515C215.035 80.4427 214.228 83.2395 212.613 85.3418C211.037 87.444 208.972 89.077 206.419 90.2408C203.867 91.367 200.995 92.1178 197.804 92.4932C194.65 92.8311 191.497 93 188.344 93H162.666C160.864 93 159.4 92.8311 158.274 92.4932C157.147 92.1553 156.265 91.6673 155.627 91.0291C154.989 90.3909 154.557 89.5838 154.332 88.6078C154.107 87.6317 153.994 86.4867 153.994 85.1728V20.0214ZM211.431 40.4059C211.431 37.7029 211.131 35.2253 210.53 32.9729C209.929 30.6829 209.01 28.6745 207.771 26.9476C206.532 25.2208 204.936 23.7942 202.984 22.668C201.032 21.5418 198.705 20.7722 196.002 20.3593V62.2544C198.705 61.879 201.032 61.0531 202.984 59.7767C204.936 58.4628 206.532 56.8298 207.771 54.8777C209.01 52.9256 209.929 50.7107 210.53 48.233C211.131 45.7554 211.431 43.1463 211.431 40.4059ZM196.002 85.1728C199.906 85.0227 202.722 84.2343 204.448 82.8078C206.175 81.3812 207.039 79.6731 207.039 77.6835C207.039 76.745 206.832 75.8065 206.419 74.868C206.044 73.9295 205.406 73.1036 204.505 72.3903C203.641 71.6395 202.496 71.0201 201.07 70.5321C199.681 70.044 197.991 69.7437 196.002 69.6311V85.1728ZM228.099 8.59035C228.099 7.31397 228.212 6.18776 228.437 5.21171C228.662 4.19812 229.094 3.37223 229.732 2.73404C230.37 2.09585 231.252 1.60783 232.378 1.26996C233.505 0.932099 234.969 0.763168 236.771 0.763168H261.435C263.162 0.763168 264.551 0.932099 265.602 1.26996C266.653 1.57029 267.479 2.03954 268.079 2.67773C268.68 3.31592 269.074 4.12304 269.262 5.09909C269.487 6.07514 269.6 7.22012 269.6 8.53404V85.2854C269.6 86.5618 269.487 87.688 269.262 88.6641C269.037 89.6026 268.624 90.4097 268.023 91.0854C267.422 91.7236 266.578 92.2117 265.489 92.5495C264.438 92.8498 263.049 93 261.322 93H236.771C234.969 93 233.505 92.8311 232.378 92.4932C231.252 92.1553 230.37 91.6673 229.732 91.0291C229.094 90.3909 228.662 89.5838 228.437 88.6078C228.212 87.6317 228.099 86.4867 228.099 85.1728V8.59035ZM312.565 94.9709C309.749 94.9709 306.934 94.7456 304.118 94.2951C301.303 93.8447 298.6 93.1314 296.01 92.1553C293.457 91.1793 291.073 89.9029 288.858 88.3262C286.643 86.7495 284.71 84.8162 283.058 82.5262C281.444 80.2363 280.167 77.5897 279.229 74.5864C278.29 71.5456 277.821 68.0732 277.821 64.169C277.821 60.3398 278.29 56.9236 279.229 53.9204C280.167 50.8796 281.444 48.2143 283.058 45.9243C284.71 43.6343 286.643 41.701 288.858 40.1243C291.073 38.5101 293.457 37.2149 296.01 36.2389C298.6 35.2253 301.303 34.4932 304.118 34.0428C306.934 33.5923 309.749 33.367 312.565 33.367C315.155 33.367 317.802 33.536 320.505 33.8738C323.245 34.1741 325.892 34.756 328.444 35.6195C331.035 36.4453 333.456 37.5903 335.709 39.0544C337.998 40.4809 339.988 42.3204 341.677 44.5728C343.404 46.8253 344.756 49.5282 345.732 52.6816C346.745 55.7974 347.252 59.4764 347.252 63.7185C347.252 68.0732 346.764 71.8835 345.788 75.1495C344.812 78.378 343.461 81.156 341.734 83.4835C340.044 85.7735 338.074 87.6693 335.821 89.1709C333.569 90.6725 331.147 91.855 328.557 92.7184C326.004 93.5443 323.358 94.1262 320.617 94.4641C317.877 94.8019 315.193 94.9709 312.565 94.9709ZM329.852 81.4563C331.016 81.4563 332.161 81.2123 333.287 80.7243C334.451 80.1987 335.464 79.279 336.328 77.9651C337.229 76.6511 337.942 74.8492 338.468 72.5592C339.031 70.2317 339.312 67.2848 339.312 63.7185C339.312 60.3398 339.031 57.5618 338.468 55.3845C337.942 53.2071 337.229 51.4991 336.328 50.2602C335.427 48.9838 334.413 48.1016 333.287 47.6136C332.161 47.1256 331.016 46.8816 329.852 46.8816C328.951 46.8816 327.938 47.0693 326.811 47.4447C325.723 47.8201 324.69 48.6272 323.714 49.866C322.776 51.0673 321.987 52.813 321.349 55.1029C320.711 57.3554 320.392 60.3774 320.392 64.169C320.392 67.9605 320.655 71.0013 321.18 73.2913C321.706 75.5812 322.4 77.3269 323.264 78.5282C324.127 79.7295 325.122 80.5178 326.248 80.8932C327.412 81.2686 328.613 81.4563 329.852 81.4563ZM388.021 87.3689C385.168 87.3689 382.334 87.1812 379.518 86.8058C376.703 86.3929 374 85.7547 371.409 84.8913C371.372 85.079 371.353 85.2667 371.353 85.4544C371.353 85.6045 371.353 85.7735 371.353 85.9612C371.353 87.0874 371.541 88.1385 371.916 89.1146C372.292 90.0531 372.874 90.879 373.662 91.5922C374.488 92.3055 375.558 92.8686 376.872 93.2816C378.186 93.6945 379.781 93.901 381.658 93.901C383.723 93.901 385.637 93.7696 387.402 93.5068C389.166 93.2816 390.893 93.0375 392.582 92.7748C394.272 92.4744 395.961 92.2117 397.65 91.9864C399.377 91.7236 401.198 91.5922 403.112 91.5922C404.952 91.5922 406.754 91.9301 408.518 92.6058C410.283 93.244 411.841 94.1825 413.192 95.4214C414.581 96.6977 415.688 98.2557 416.514 100.095C417.34 101.935 417.753 104.037 417.753 106.402C417.753 108.504 417.547 110.344 417.134 111.92C416.758 113.497 416.364 114.999 415.951 116.425C415.876 116.613 415.726 116.838 415.501 117.101C415.313 117.364 414.938 117.495 414.374 117.495H410.207C409.682 117.495 409.344 117.364 409.194 117.101C409.044 116.876 408.931 116.688 408.856 116.538C408.143 114.773 405.384 113.891 400.578 113.891C398.514 113.891 396.468 114.004 394.441 114.229C392.413 114.492 390.349 114.755 388.246 115.017C386.144 115.318 383.948 115.581 381.658 115.806C379.406 116.069 377.022 116.2 374.507 116.2C371.015 116.2 368.05 115.618 365.609 114.454C363.207 113.291 361.255 111.808 359.753 110.006C358.252 108.241 357.163 106.289 356.487 104.15C355.811 102.01 355.474 99.9825 355.474 98.068C355.474 96.0032 355.699 94.1262 356.149 92.4369C356.637 90.71 357.257 89.1521 358.008 87.7631C358.758 86.3741 359.622 85.1353 360.598 84.0466C361.574 82.9204 362.55 81.9068 363.526 81.0058C360.448 78.9036 357.97 76.1631 356.093 72.7845C354.216 69.4058 353.277 65.2576 353.277 60.3398C353.277 56.9987 353.747 54.0143 354.685 51.3864C355.624 48.7211 356.9 46.3936 358.514 44.4039C360.166 42.3767 362.099 40.6686 364.314 39.2796C366.529 37.8907 368.913 36.7644 371.466 35.901C374.056 35 376.759 34.3619 379.575 33.9864C382.39 33.5735 385.206 33.367 388.021 33.367C390.536 33.367 393.108 33.4984 395.736 33.7612C398.363 34.024 400.916 34.512 403.394 35.2253C405.909 35.901 408.274 36.8207 410.489 37.9845C412.741 39.1483 414.731 40.6311 416.458 42.433L422.596 36.1826C423.009 35.7696 423.403 35.4693 423.778 35.2816C424.191 35.0939 424.567 35 424.905 35C425.505 35 426.05 35.2441 426.538 35.7321L429.297 38.6602C429.747 39.1858 429.973 39.7301 429.973 40.2932C429.973 41.1191 429.503 41.8699 428.565 42.5457L420.4 48.2893C421.151 49.9036 421.714 51.668 422.089 53.5826C422.502 55.4971 422.708 57.5994 422.708 59.8893C422.708 63.7185 422.22 67.0596 421.244 69.9126C420.268 72.7657 418.917 75.2058 417.19 77.233C415.501 79.2602 413.53 80.9308 411.277 82.2447C409.025 83.5586 406.604 84.5909 404.013 85.3418C401.461 86.0926 398.814 86.6181 396.074 86.9185C393.333 87.2188 390.649 87.3689 388.021 87.3689ZM406.829 54.1457C406.641 53.958 406.547 53.6764 406.547 53.301C406.547 52.8505 406.716 52.4563 407.054 52.1185L410.658 48.402C409.907 47.8389 409.081 47.4447 408.18 47.2194C407.317 46.9942 406.435 46.8816 405.534 46.8816C404.633 46.8816 403.619 47.0317 402.493 47.3321C401.404 47.5949 400.353 48.1955 399.34 49.134C398.363 50.0725 397.538 51.4427 396.862 53.2447C396.186 55.0091 395.848 57.3741 395.848 60.3398C395.848 63.3055 396.111 65.6893 396.637 67.4913C397.2 69.2557 397.932 70.6071 398.833 71.5456C399.734 72.4842 400.766 73.1036 401.93 73.4039C403.094 73.7042 404.295 73.8544 405.534 73.8544C406.697 73.8544 407.842 73.6667 408.969 73.2913C410.095 72.8783 411.071 72.1651 411.897 71.1515C412.76 70.1003 413.455 68.6926 413.98 66.9282C414.506 65.1262 414.769 62.8175 414.769 60.002C414.769 57.1864 414.45 54.8589 413.811 53.0194L410.039 55.666C409.738 55.8537 409.438 55.9476 409.138 55.9476C408.65 55.9476 408.255 55.7599 407.955 55.3845L406.829 54.1457Z" fill="#4F46E5"/>
</svg>
